<?xml version="1.0" encoding="utf-8"?>
<!-- Generator: Adobe Illustrator 16.0.0, SVG Export Plug-In . SVG Version: 6.00 Build 0)  -->
<!DOCTYPE svg PUBLIC "-//W3C//DTD SVG 1.0//EN" "http://www.w3.org/TR/2001/REC-SVG-20010904/DTD/svg10.dtd">
<svg style="fill: #FF5050;" version="1.0" id="Layer_1" xmlns="http://www.w3.org/2000/svg" xmlns:xlink="http://www.w3.org/1999/xlink" x="0px" y="0px"
	 width="100px" height="100px" viewBox="0 0 100 100" enable-background="new 0 0 100 100" xml:space="preserve">
<path d="M50,10c-18.401,0-33.333,14.916-33.333,33.333c0,9.2,3.73,17.532,9.766,23.567L50,90l23.574-23.105
	c6.035-6.029,9.766-14.361,9.759-23.568C83.333,24.932,68.411,10,50,10z M68.864,62.174L50,80.664L31.101,62.135
	c-4.994-4.986-7.768-11.682-7.768-18.801c0-14.704,11.963-26.667,26.667-26.667c7.122,0,13.821,2.777,18.857,7.813
	c5.036,5.039,7.81,11.732,7.81,18.848C76.673,50.453,73.899,57.143,68.864,62.174z"/>
<path d="M54.167,29.167c0,2.298-1.869,4.164-4.167,4.164s-4.167-1.865-4.167-4.164C45.833,26.865,47.702,25,50,25
	S54.167,26.865,54.167,29.167z"/>
<polygon points="58.333,41.667 58.333,36.667 41.667,36.667 41.667,41.667 47.5,41.667 47.5,55 41.667,55 41.667,60 58.333,60 
	58.333,55 52.5,55 52.5,41.667 "/>
</svg>
